<svg width="1295" height="1363" viewBox="0 0 1295 1363" fill="none" xmlns="http://www.w3.org/2000/svg">
<g style="mix-blend-mode:screen" opacity="0.2">
<path d="M358.86 1.1368C358.86 1.1368 278.454 24.2601 225.563 99.5801C169.721 179.128 237.506 178.079 336.776 119.473C447.549 54.0784 438.878 150.845 365.838 191.108C292.758 231.304 196.947 277.07 193.792 326.988C190.637 376.905 339.145 314.899 339.145 314.899L348.267 325.464C348.267 325.464 189.454 401.525 108.408 543.967C27.3619 686.409 -98.5545 786.674 -40.0605 907.932C18.4335 1029.19 369.651 797.774 369.651 797.774L767.074 744.654C767.074 744.654 824.188 665.216 882.433 671.997C940.592 678.833 1008.58 686.767 1008.58 686.767C1008.58 686.767 1010.38 656.659 1061.44 618.668C1112.49 580.677 1112.05 660.782 1112.05 660.782C1112.05 660.782 1168.37 609.359 1189.52 643.88C1210.67 678.402 1191.51 768.471 1101.28 779.1C1011.01 789.663 949.509 957.521 801.301 936.234C653.22 914.959 630.849 1021.81 595.38 1000.69C559.911 979.56 499.451 965.426 419.792 1030.09C340.133 1094.75 474.232 1078.45 474.232 1078.45C474.232 1078.45 329.607 1128.9 325.714 1240.15C321.82 1351.4 411.229 1390.77 574.653 1341.51C738.078 1292.25 832.291 1185.07 880.939 1161.63C929.587 1138.19 956.162 1204.19 859.914 1241.58C859.914 1241.58 943.877 1235.08 976.765 1156.41C1009.61 1077.67 924.209 1077.88 801.816 1179.57C679.551 1281.27 541.311 1224.73 549.818 1161.33C558.326 1097.93 639.549 1032.28 682.107 1064.98C724.665 1097.68 647.833 1108.34 647.833 1108.34C647.833 1108.34 736.119 1164.36 856.86 1063.71C977.473 963.053 959.913 930.648 959.913 930.648L1103.7 805.276C1103.7 805.276 1152.24 810.969 1221.52 744.102C1290.88 677.181 1333.47 529.981 1244.59 506.228C1155.71 482.475 1054.44 612.957 1008.1 584.102C961.749 555.247 976.499 516.981 1031.71 493.049C1086.84 469.171 1130.15 481.075 1164.18 426.292C1198.21 371.509 1105.96 301.945 984.648 360.948C863.247 420.006 780.317 549.146 780.317 549.146L274.69 734.203C274.69 734.203 269.083 798.605 155.244 844.243C41.4053 889.882 97.4775 819.756 97.4775 819.756C97.4775 819.756 19.972 843.878 14.7542 795.041C9.58303 746.085 103.978 698.204 127.852 715.152C127.852 715.152 138.999 531.17 350.276 482.936C561.553 434.702 522.263 241.937 446.635 228.609C370.96 215.401 529.179 124.406 548.877 75.732C568.576 27.0581 492.893 16.5893 403.985 66.9371C268.108 143.86 218.77 80.6224 359.121 0.972405L358.86 1.1368Z" fill="#041C1F"/>
</g>
</svg>
