<svg width="40" height="40" viewBox="0 0 40 40" fill="none" xmlns="http://www.w3.org/2000/svg">
<path fill-rule="evenodd" clip-rule="evenodd" d="M19.9608 4.89429C15.9727 4.89429 15.4734 4.91093 13.9072 4.98239C12.3438 5.05385 11.2758 5.3025 10.342 5.66567C9.36304 6.03375 8.47516 6.61131 7.74097 7.3592C6.99428 8.09254 6.41636 8.97979 6.04745 9.95921C5.68623 10.8931 5.4366 11.9621 5.36514 13.5254C5.29466 15.0907 5.27704 15.589 5.27704 19.5781C5.27704 23.5671 5.29368 24.0654 5.36514 25.6317C5.4366 27.195 5.68525 28.263 6.04843 29.1969C6.4165 30.1758 6.99406 31.0637 7.74195 31.7979C8.47531 32.5445 9.36256 33.1225 10.342 33.4914C11.2758 33.8536 12.3438 34.1022 13.9072 34.1737C15.4734 34.2452 15.9727 34.2618 19.9608 34.2618C23.9489 34.2618 24.4482 34.2452 26.0144 34.1737C27.5778 34.1022 28.6458 33.8536 29.5796 33.4904C30.5586 33.1224 31.4464 32.5448 32.1806 31.7969C32.9273 31.0636 33.5052 30.1763 33.8742 29.1969C34.2364 28.263 34.485 27.195 34.5565 25.6317C34.6279 24.0654 34.6446 23.5662 34.6446 19.5781C34.6446 15.5899 34.6279 15.0907 34.5565 13.5244C34.485 11.9611 34.2364 10.8931 33.8732 9.95921C33.5045 8.97937 32.9266 8.09175 32.1797 7.35822C31.4463 6.61153 30.5591 6.03361 29.5796 5.6647C28.6458 5.30347 27.5768 5.05385 26.0134 4.98239C24.4482 4.91191 23.9499 4.89429 19.9608 4.89429ZM19.9608 7.5403C23.8814 7.5403 24.3464 7.55499 25.895 7.62547C27.3262 7.69105 28.1034 7.92893 28.6213 8.13157C29.3065 8.39685 29.796 8.71598 30.3099 9.22893C30.8239 9.74287 31.142 10.2323 31.4073 10.9176C31.6089 11.4354 31.8478 12.2127 31.9134 13.6439C31.9839 15.1925 31.9986 15.6575 31.9986 19.5781C31.9986 23.4986 31.9839 23.9636 31.9134 25.5122C31.8478 26.9434 31.6099 27.7207 31.4073 28.2385C31.1723 28.8763 30.7973 29.4534 30.3099 29.9272C29.8362 30.4146 29.2592 30.7896 28.6213 31.0245C28.1034 31.2262 27.3262 31.465 25.895 31.5306C24.3464 31.6011 23.8823 31.6158 19.9608 31.6158C16.0393 31.6158 15.5753 31.6011 14.0266 31.5306C12.5954 31.465 11.8182 31.2272 11.3003 31.0245C10.6625 30.7895 10.0855 30.4145 9.61169 29.9272C9.12436 29.4533 8.74938 28.8763 8.51432 28.2385C8.31266 27.7207 8.07381 26.9434 8.00822 25.5122C7.93774 23.9636 7.92305 23.4986 7.92305 19.5781C7.92305 15.6575 7.93774 15.1925 8.00822 13.6439C8.07381 12.2127 8.31168 11.4354 8.51432 10.9176C8.77961 10.2323 9.09873 9.74287 9.61169 9.22893C10.0854 8.74148 10.6625 8.36648 11.3003 8.13157C11.8182 7.92991 12.5954 7.69105 14.0266 7.62547C15.5753 7.55499 16.0402 7.5403 19.9608 7.5403Z" fill="white"/>
<path fill-rule="evenodd" clip-rule="evenodd" d="M19.9608 24.4776C19.3174 24.4776 18.6803 24.3508 18.0858 24.1046C17.4914 23.8584 16.9513 23.4975 16.4963 23.0425C16.0414 22.5876 15.6805 22.0475 15.4343 21.453C15.188 20.8586 15.0613 20.2215 15.0613 19.5781C15.0613 18.9347 15.188 18.2976 15.4343 17.7031C15.6805 17.1087 16.0414 16.5686 16.4963 16.1136C16.9513 15.6587 17.4914 15.2978 18.0858 15.0515C18.6803 14.8053 19.3174 14.6786 19.9608 14.6786C21.2602 14.6786 22.5064 15.1948 23.4252 16.1136C24.3441 17.0325 24.8603 18.2787 24.8603 19.5781C24.8603 20.8775 24.3441 22.1237 23.4252 23.0425C22.5064 23.9614 21.2602 24.4776 19.9608 24.4776ZM19.9608 12.0306C17.9591 12.0306 16.0393 12.8258 14.6239 14.2412C13.2085 15.6566 12.4133 17.5764 12.4133 19.5781C12.4133 21.5798 13.2085 23.4995 14.6239 24.9149C16.0393 26.3304 17.9591 27.1255 19.9608 27.1255C21.9625 27.1255 23.8822 26.3304 25.2976 24.9149C26.7131 23.4995 27.5082 21.5798 27.5082 19.5781C27.5082 17.5764 26.7131 15.6566 25.2976 14.2412C23.8822 12.8258 21.9625 12.0306 19.9608 12.0306ZM29.7039 11.8936C29.7039 12.3667 29.516 12.8205 29.1814 13.1551C28.8468 13.4897 28.393 13.6777 27.9199 13.6777C27.4467 13.6777 26.9929 13.4897 26.6583 13.1551C26.3238 12.8205 26.1358 12.3667 26.1358 11.8936C26.1358 11.4204 26.3238 10.9666 26.6583 10.632C26.9929 10.2975 27.4467 10.1095 27.9199 10.1095C28.393 10.1095 28.8468 10.2975 29.1814 10.632C29.516 10.9666 29.7039 11.4204 29.7039 11.8936Z" fill="white"/>
</svg>
