<svg width="40" height="40" viewBox="0 0 40 40" fill="none" xmlns="http://www.w3.org/2000/svg">
<path d="M33.3964 12.9216C33.4163 13.2093 33.4163 13.497 33.4163 13.7873C33.4163 22.6332 26.682 32.8354 14.3682 32.8354V32.8301C10.7306 32.8354 7.16861 31.7934 4.10638 29.8288C4.63531 29.8924 5.1669 29.9243 5.6998 29.9256C8.7143 29.9282 11.6426 28.9168 14.0142 27.0543C11.1495 26.9999 8.63742 25.1321 7.75984 22.4052C8.76335 22.5988 9.79735 22.559 10.7823 22.2899C7.6591 21.6589 5.41214 18.9148 5.41214 15.728C5.41214 15.6988 5.41214 15.671 5.41214 15.6432C6.34274 16.1615 7.38469 16.4491 8.4505 16.481C5.50891 14.515 4.60217 10.6018 6.37853 7.54218C9.77747 11.7246 14.7924 14.2671 20.1758 14.5363C19.6362 12.2111 20.3733 9.77456 22.1125 8.14005C24.8089 5.60543 29.0496 5.73534 31.5842 8.43036C33.0835 8.13474 34.5205 7.5846 35.8355 6.80513C35.3358 8.3548 34.2898 9.67116 32.8926 10.5076C34.2196 10.3512 35.5161 9.99594 36.737 9.45375C35.8382 10.8006 34.7061 11.9738 33.3964 12.9216Z" fill="white"/>
</svg>
